<?xml version="1.0" encoding="UTF-8"?>
<svg width="204px" height="33px" viewBox="0 0 204 33" version="1.1" xmlns="http://www.w3.org/2000/svg" xmlns:xlink="http://www.w3.org/1999/xlink">
    <title>logo</title>
    <g id="logo" stroke="none" stroke-width="1" fill="none" fill-rule="evenodd">
        <polygon id="Fill-76" fill="#E2642A" points="0 21 0 0 6.61003877 0 11.6043316 14.4410392 11.6643919 14.4410392 16.3896516 0 23 0 23 21 18.6032143 21 18.6032143 6.11751573 18.5434636 6.11751573 13.3092392 21 9.69045119 21 4.45653637 6.26486706 4.39647607 6.26486706 4.39647607 21"></polygon>
        <polygon id="Fill-78" fill="#E2642A" points="32.062619 21 32.062619 12.8238279 24 0 29.4259573 0 34.5460123 8.29429673 39.634652 0 45 0 36.8758198 12.9410392 36.8758198 21"></polygon>
        <polygon id="Fill-80" fill="#E2642A" points="47 21 47 0 61 0 61 3.88228131 51.3786626 3.88228131 51.3786626 8.73513294 59.7171165 8.73513294 59.7171165 12.3236249 51.3786626 12.3236249 51.3786626 21"></polygon>
        <g id="Group-2-Copy" transform="translate(73.000000, 27.000000)" fill="#1C1C46">
            <polygon id="Fill-22" points="0 0.118704386 0.746355263 0.118704386 1.62026316 2.38822193 3.45943421 0.118704386 4.20923684 0.118704386 1.82365789 2.93807719 1.42203947 4.84159912 0.78197807 4.84159912 1.18417105 2.93807719"></polygon>
            <path d="M5.819675,3.06333158 C5.88804781,2.74157719 5.8926443,2.48015175 5.83174079,2.27905526 C5.7363636,1.96189737 5.48872763,1.80331842 5.08998202,1.80331842 C4.73662675,1.80331842 4.45049518,1.93834035 4.2327364,2.20838421 C4.01497763,2.47842807 3.86616623,2.80420439 3.78515307,3.18571316 C3.70758728,3.55228333 3.723675,3.85795 3.83111798,4.1021386 C3.94028465,4.34632719 4.16781096,4.46813421 4.51771886,4.46813421 C4.90152588,4.46813421 5.19570132,4.32334474 5.40024518,4.03261667 C5.6053636,3.74246316 5.74440746,3.41955965 5.819675,3.06333158 M6.4269864,3.04781842 C6.30920132,3.60227018 6.07650395,4.06134474 5.73004342,4.42331842 C5.38185921,4.78586667 4.92508289,4.96685351 4.35626711,4.96685351 C3.88282851,4.96685351 3.54153904,4.80655088 3.33182412,4.48652018 C3.12096009,4.16591491 3.07269693,3.73556842 3.18703465,3.19490614 C3.31056535,2.61689737 3.55647763,2.15609912 3.92304781,1.81308596 C4.28904342,1.47007281 4.71996447,1.29885351 5.21466184,1.29885351 C5.65937237,1.29885351 6.00238553,1.44651579 6.24599956,1.74241491 C6.48846447,2.03831404 6.54936798,2.47325702 6.4269864,3.04781842" id="Fill-23"></path>
            <path d="M8.04385965,1.39802281 L7.55892982,3.68420263 C7.52215789,3.86001842 7.51985965,4.00365877 7.55260965,4.11512368 C7.61064035,4.32081667 7.78013596,4.42366316 8.06052193,4.42366316 C8.46328947,4.42366316 8.77642544,4.24325088 8.9987807,3.88357544 C9.11886404,3.69052281 9.21424123,3.42565 9.28491228,3.08895702 L9.64516228,1.39802281 L10.2243202,1.39802281 L9.49347807,4.8413693 L8.94707018,4.8413693 L9.06083333,4.33345702 C8.95741228,4.46445702 8.84077632,4.57419825 8.70920175,4.66497895 C8.45007456,4.84481667 8.16279386,4.93444825 7.84850877,4.93444825 C7.35725877,4.93444825 7.05848684,4.77069825 6.95104386,4.44319825 C6.89128947,4.26680789 6.8924386,4.03238684 6.95449123,3.73878596 L7.45263596,1.39802281 L8.04385965,1.39802281 Z" id="Fill-24"></path>
            <path d="M11.1433311,1.39802281 L11.6931864,1.39802281 L11.5673575,1.99269386 C11.6357303,1.87720702 11.7764978,1.73643947 11.9873618,1.57039123 C12.1982259,1.40434298 12.4182829,1.32103158 12.6481075,1.32103158 C12.6584496,1.32103158 12.6774101,1.3221807 12.7032654,1.32447895 C12.7279715,1.32677719 12.7716382,1.33079912 12.8313925,1.33769386 L12.7032654,1.94787807 C12.6682171,1.94155789 12.6371908,1.9369614 12.6090373,1.93523772 C12.5820329,1.93351404 12.550432,1.93236491 12.5159583,1.93236491 C12.2252303,1.93236491 11.9804671,2.02601842 11.7851162,2.21332544 C11.5886162,2.40063246 11.464511,2.61666754 11.4105022,2.86085614 L10.9916469,4.8413693 L10.4136382,4.8413693 L11.1433311,1.39802281 Z" id="Fill-25"></path>
            <polygon id="Fill-26" points="15.4996557 0.118704386 16.2546294 0.118704386 17.8272039 3.94413421 18.6407829 0.118704386 19.2475197 0.118704386 18.2454846 4.84159912 17.528432 4.84159912 15.9173618 1.01846754 15.1066557 4.84159912 14.4964715 4.84159912"></polygon>
            <path d="M20.3127566,4.46554868 C20.5161513,4.46554868 20.723568,4.41843465 20.9355811,4.32420658 C21.2889364,4.16735132 21.5043969,3.91109693 21.5819627,3.55544342 L21.678489,3.08889956 C21.598625,3.13486447 21.5009496,3.1716364 21.3831645,3.20208816 C21.2653794,3.23196535 21.1510417,3.25379868 21.0424496,3.26586447 L20.6821996,3.31125482 C20.4655899,3.33883377 20.2983925,3.383075 20.1806075,3.44340395 C19.9806601,3.54395219 19.8582785,3.70482939 19.8111645,3.92546096 C19.7743925,4.09265833 19.806568,4.22423289 19.9088399,4.32075921 C20.0111118,4.41728553 20.1455592,4.46554868 20.3127566,4.46554868 L20.3127566,4.46554868 Z M21.4595811,2.75450482 C21.5974759,2.73784254 21.6985987,2.68211009 21.7658224,2.58730746 C21.8020197,2.53674605 21.8301732,2.46262763 21.8491338,2.36610132 C21.8916513,2.16902675 21.8525811,2.02596096 21.7301996,1.93690395 C21.607818,1.84784693 21.4159145,1.80303114 21.154489,1.80303114 C20.8522697,1.80303114 20.6212961,1.88519342 20.4598443,2.0477943 C20.3702127,2.13742588 20.2960943,2.27187325 20.2386382,2.44941272 L19.6979759,2.44941272 C19.7985241,2.0253864 19.9996206,1.73006184 20.2995417,1.5640136 C20.5988882,1.39796535 20.9240899,1.31465395 21.2734232,1.31465395 C21.678489,1.31465395 21.9904759,1.39164518 22.2093838,1.54620219 C22.4282917,1.70075921 22.5024101,1.94035132 22.4334627,2.26612763 L22.0128838,4.25008816 C22.000818,4.30984254 22.0013925,4.3581057 22.0174803,4.39487763 C22.0341425,4.431075 22.0812566,4.44946096 22.1611206,4.44946096 C22.1869759,4.44946096 22.2162785,4.44773728 22.2496031,4.44428991 C22.2823531,4.44141711 22.3179759,4.43624605 22.3576206,4.42992588 L22.2639671,4.85797412 C22.1685899,4.88325482 22.0979189,4.89934254 22.0496557,4.90623728 C22.0013925,4.91198289 21.9364671,4.91543026 21.8560285,4.91543026 C21.6560811,4.91543026 21.5268048,4.84475921 21.4664759,4.70341711 C21.4337259,4.62814956 21.4239583,4.52243026 21.4337259,4.38453553 C21.2820417,4.53909254 21.083818,4.67296535 20.8390548,4.78730307 C20.5954408,4.90049167 20.339761,4.95679868 20.0748882,4.95679868 C19.7548575,4.95679868 19.5146908,4.86027237 19.3520899,4.66664518 C19.1906382,4.47244342 19.1412259,4.22940395 19.2027039,3.93810132 C19.2716513,3.61864518 19.4239101,3.37158377 19.6606294,3.19519342 C19.8973487,3.01937763 20.1823311,2.91136009 20.5150022,2.87114079 L21.4595811,2.75450482 Z" id="Fill-27"></path>
            <path d="M23.8869307,0.436896491 L24.4729833,0.436896491 L24.2661412,1.39813772 L24.8159965,1.39813772 L24.7160228,1.87100175 L24.1661675,1.87100175 L23.6881325,4.1181114 C23.6622772,4.23819474 23.6858342,4.31863333 23.7588035,4.35942719 C23.7995974,4.38298421 23.8725667,4.39505 23.9765623,4.39505 C24.0047158,4.39505 24.0351675,4.39447544 24.067343,4.39332632 C24.0989439,4.39217719 24.138014,4.38930439 24.1834044,4.38470789 L24.0868781,4.84148421 C24.016207,4.86044474 23.9432377,4.87480877 23.8691193,4.88285263 C23.79615,4.89204561 23.716286,4.89606754 23.6335491,4.89606754 C23.3629307,4.89606754 23.1945842,4.82712018 23.1273605,4.68865088 C23.0601368,4.55018158 23.0486456,4.37149298 23.0957596,4.15028684 L23.5818386,1.87100175 L23.1158693,1.87100175 L23.2146939,1.39813772 L23.6818123,1.39813772 L23.8869307,0.436896491 Z" id="Fill-28"></path>
            <path d="M25.6678412,0.118704386 L26.2567667,0.118704386 L26.1142754,0.774853509 L25.5264991,0.774853509 L25.6678412,0.118704386 Z M25.3920518,1.41434035 L25.9798281,1.41434035 L25.2535825,4.84159912 L24.664657,4.84159912 L25.3920518,1.41434035 Z" id="Fill-29"></path>
            <path d="M28.8739513,3.06333158 C28.9423241,2.74157719 28.9457715,2.48015175 28.8860171,2.27905526 C28.7900654,1.96189737 28.5418548,1.80331842 28.1436838,1.80331842 C27.7897539,1.80331842 27.5047715,1.93834035 27.2870127,2.20838421 C27.0692539,2.47842807 26.9204425,2.80420439 26.8382803,3.18571316 C26.7607145,3.55228333 26.7768022,3.85795 26.8853943,4.1021386 C26.9934118,4.34632719 27.2220873,4.46813421 27.5708461,4.46813421 C27.9546531,4.46813421 28.2488285,4.32334474 28.4545215,4.03261667 C28.6584908,3.74246316 28.7986838,3.41955965 28.8739513,3.06333158 M29.4812627,3.04781842 C29.3634776,3.60227018 29.1307803,4.06134474 28.7831706,4.42331842 C28.4361355,4.78586667 27.9782101,4.96685351 27.4105434,4.96685351 C26.9371048,4.96685351 26.5946662,4.80655088 26.3849513,4.48652018 C26.1752364,4.16591491 26.1269732,3.73556842 26.2401618,3.19490614 C26.3648417,2.61689737 26.6107539,2.15609912 26.976175,1.81308596 C27.3433197,1.47007281 27.7742408,1.29885351 28.2689382,1.29885351 C28.7124996,1.29885351 29.0555127,1.44651579 29.2991268,1.74241491 C29.5427408,2.03831404 29.6036443,2.47325702 29.4812627,3.04781842" id="Fill-30"></path>
            <path d="M30.519093,1.39802281 L31.0689482,1.39802281 L30.9655272,1.88697456 C31.1723693,1.68530351 31.3751895,1.5410886 31.5751368,1.4531807 C31.7762333,1.36469825 31.9882465,1.32103158 32.2100272,1.32103158 C32.6995535,1.32103158 32.9925798,1.49167632 33.0914044,1.83239123 C33.1471368,2.01854912 33.1385184,2.28572018 33.0655491,2.63275526 L32.5961325,4.8413693 L32.0083561,4.8413693 L32.4674307,2.67125088 C32.5122465,2.46153596 32.5179921,2.29204035 32.484093,2.1633386 C32.4254877,1.94902719 32.2617377,1.84158421 31.9916939,1.84158421 C31.8543737,1.84158421 31.7388868,1.85594825 31.6446588,1.88410175 C31.4751632,1.93121579 31.3160096,2.02544386 31.1654746,2.16678596 C31.0453912,2.27997456 30.9580579,2.39718509 30.9040491,2.51841754 C30.8488912,2.63965 30.7971807,2.81316754 30.7512158,3.03782105 L30.3685579,4.8413693 L29.7894,4.8413693 L30.519093,1.39802281 Z" id="Fill-31"></path>
            <path d="M34.5892285,4.46554868 C34.7931978,4.46554868 35.001189,4.41843465 35.2132022,4.32420658 C35.5665575,4.16735132 35.782018,3.91109693 35.8595838,3.55544342 L35.9561101,3.08889956 C35.8762461,3.13486447 35.7774215,3.1716364 35.6596364,3.20208816 C35.5418513,3.23196535 35.4286627,3.25379868 35.3189215,3.26586447 L34.9598206,3.31125482 C34.743211,3.33883377 34.5760136,3.383075 34.4576539,3.44340395 C34.2582811,3.54395219 34.1347504,3.70482939 34.0876364,3.92546096 C34.051439,4.09265833 34.084189,4.22423289 34.186461,4.32075921 C34.2875838,4.41728553 34.4220311,4.46554868 34.5892285,4.46554868 L34.5892285,4.46554868 Z M35.7372022,2.75450482 C35.8739478,2.73784254 35.9762197,2.68211009 36.0422943,2.58730746 C36.0784917,2.53674605 36.1066452,2.46262763 36.1256057,2.36610132 C36.1692724,2.16902675 36.1290531,2.02596096 36.0066715,1.93690395 C35.885439,1.84784693 35.6935355,1.80303114 35.4321101,1.80303114 C35.1287417,1.80303114 34.897768,1.88519342 34.7374654,2.0477943 C34.6478338,2.13742588 34.5737154,2.27187325 34.5151101,2.44941272 L33.9755969,2.44941272 C34.0761452,2.0253864 34.2760925,1.73006184 34.5771627,1.5640136 C34.8765092,1.39796535 35.2005618,1.31465395 35.5510443,1.31465395 C35.9561101,1.31465395 36.2680969,1.39164518 36.4858557,1.54620219 C36.7047636,1.70075921 36.7800311,1.94035132 36.7110838,2.26612763 L36.2905048,4.25008816 C36.2772899,4.30984254 36.2790136,4.3581057 36.2951013,4.39487763 C36.3106145,4.431075 36.3588776,4.44946096 36.4375925,4.44946096 C36.4634478,4.44946096 36.493325,4.44773728 36.526075,4.44428991 C36.5599741,4.44141711 36.5955969,4.43624605 36.6340925,4.42992588 L36.540439,4.85797412 C36.446211,4.88325482 36.3755399,4.89934254 36.3272768,4.90623728 C36.2790136,4.91198289 36.2140882,4.91543026 36.1325004,4.91543026 C35.9337022,4.91543026 35.8032768,4.84475921 35.7440969,4.70341711 C35.7113469,4.62814956 35.7004303,4.52243026 35.7113469,4.38453553 C35.5585136,4.53909254 35.361439,4.67296535 35.1166759,4.78730307 C34.8719127,4.90049167 34.617382,4.95679868 34.3513601,4.95679868 C34.0313294,4.95679868 33.7911627,4.86027237 33.629711,4.66664518 C33.4682592,4.47244342 33.4176978,4.22940395 33.480325,3.93810132 C33.5486978,3.61864518 33.7015311,3.37158377 33.9382504,3.19519342 C34.1749697,3.01937763 34.4588031,2.91136009 34.7926232,2.87114079 L35.7372022,2.75450482 Z" id="Fill-32"></path>
            <polygon id="Fill-33" points="38.1320316 0.118704386 38.7111895 0.118704386 37.7080053 4.84159912 37.1288474 4.84159912"></polygon>
            <polygon id="Fill-34" points="41.5457307 0.118704386 44.9896518 0.118704386 44.8638228 0.697287719 42.0438754 0.697287719 41.7422307 2.13139298 44.3501649 2.13139298 44.2335289 2.67780088 41.6267439 2.67780088 41.2854544 4.27852895 44.1536649 4.27852895 44.0347307 4.84159912 40.5436956 4.84159912"></polygon>
            <path d="M45.5261197,1.39802281 L46.0983829,1.39802281 L45.996111,1.88697456 C46.1690539,1.71805351 46.319589,1.59452281 46.4465671,1.51695702 C46.6637513,1.38595702 46.8952996,1.32103158 47.1377645,1.32103158 C47.4112557,1.32103158 47.6180978,1.38825526 47.7571417,1.52385175 C47.8347075,1.60084298 47.8961855,1.71460614 47.9410013,1.86456667 C48.1104969,1.68013246 48.2909092,1.54338684 48.4822382,1.45490439 C48.6741417,1.36527281 48.878111,1.32103158 49.0947206,1.32103158 C49.5583917,1.32103158 49.8376285,1.48822895 49.9341548,1.82262368 C49.9858654,2.00303596 49.9789706,2.24492632 49.9151943,2.54944386 L49.4291154,4.8413693 L48.8275496,4.8413693 L49.3360364,2.44947018 C49.3831504,2.22022018 49.3584443,2.06279035 49.261918,1.9771807 C49.1653917,1.89099649 49.0349662,1.84847895 48.8700671,1.84847895 C48.6425408,1.84847895 48.4316768,1.92432105 48.2351768,2.07657982 C48.0386768,2.2288386 47.9030803,2.48279474 47.8278127,2.83844825 L47.4037864,4.8413693 L46.8154355,4.8413693 L47.2911724,2.59425965 C47.3405846,2.36098772 47.3497776,2.19034298 47.3170276,2.0829 C47.2630189,1.92202281 47.1165057,1.84158421 46.876339,1.84158421 C46.6585803,1.84158421 46.4408215,1.9266193 46.225361,2.09611491 C46.0099004,2.26561053 45.8547689,2.57185175 45.7605408,3.01541316 L45.3755846,4.8413693 L44.7964268,4.8413693 L45.5261197,1.39802281 Z" id="Fill-35"></path>
            <path d="M53.0459219,3.09872456 C53.1045272,2.82465877 53.1131456,2.58851404 53.0752246,2.39201404 C53.0068518,2.01222895 52.7730053,1.82262368 52.3736851,1.82262368 C51.9732158,1.82262368 51.6566325,2.02314561 51.4222114,2.42361491 C51.2986807,2.63792632 51.2010053,2.91026842 51.1303342,3.24064123 C51.0740272,3.5060886 51.0665579,3.73246579 51.1079263,3.91919825 C51.1808956,4.27485175 51.4164658,4.45239123 51.8146368,4.45239123 C52.0852553,4.45239123 52.3334658,4.33920263 52.5609921,4.1134 C52.7879439,3.88702281 52.9493956,3.5491807 53.0459219,3.09872456 L53.0459219,3.09872456 Z M50.9631368,1.41411053 L51.5256325,1.41411053 L51.4291061,1.87088684 C51.5767684,1.71460614 51.7296018,1.59337368 51.8853079,1.50718947 C52.1088123,1.37906228 52.3512772,1.3147114 52.6150009,1.3147114 C53.0057026,1.3147114 53.3039,1.46409737 53.5124658,1.76344386 C53.720457,2.06221579 53.7652728,2.48911491 53.6474877,3.04414123 C53.4889088,3.79451842 53.1792202,4.33058421 52.7184219,4.65176404 C52.4265447,4.85573333 52.115707,4.95685614 51.7859088,4.95685614 C51.526207,4.95685614 51.3210886,4.90054912 51.1682553,4.78678596 C51.0786237,4.72243509 50.987843,4.6121193 50.8959132,4.45526404 L50.5218737,6.21457105 L49.9444395,6.21457105 L50.9631368,1.41411053 Z" id="Fill-36"></path>
            <polygon id="Fill-37" points="54.9626013 0.118704386 55.5406101 0.118704386 54.5374259 4.84159912 53.9594171 4.84159912"></polygon>
            <path d="M58.1518768,3.06333158 C58.2202496,2.74157719 58.2236969,2.48015175 58.1639425,2.27905526 C58.0679908,1.96189737 57.8197803,1.80331842 57.4216092,1.80331842 C57.0676794,1.80331842 56.7826969,1.93834035 56.5649382,2.20838421 C56.3471794,2.47842807 56.198368,2.80420439 56.1162057,3.18571316 C56.0386399,3.55228333 56.0547276,3.85795 56.1633197,4.1021386 C56.2713373,4.34632719 56.5000127,4.46813421 56.8487715,4.46813421 C57.2325785,4.46813421 57.5267539,4.32334474 57.7324469,4.03261667 C57.9364162,3.74246316 58.0766092,3.41955965 58.1518768,3.06333158 M58.7591882,3.04781842 C58.6414031,3.60227018 58.4087057,4.06134474 58.0610961,4.42331842 C57.714061,4.78586667 57.2561355,4.96685351 56.6884689,4.96685351 C56.2150303,4.96685351 55.8725917,4.80655088 55.6628768,4.48652018 C55.4531618,4.16591491 55.4048987,3.73556842 55.5180873,3.19490614 C55.6427671,2.61689737 55.8886794,2.15609912 56.2541004,1.81308596 C56.6212452,1.47007281 57.0521662,1.29885351 57.5468636,1.29885351 C57.990425,1.29885351 58.3334382,1.44651579 58.5770522,1.74241491 C58.8206662,2.03831404 58.8815697,2.47325702 58.7591882,3.04781842" id="Fill-38"></path>
            <path d="M61.9482338,1.39802281 L62.5877206,1.39802281 C62.4590189,1.61922895 62.170589,2.1231193 61.7224311,2.9091193 C61.3880364,3.50091754 61.1110978,3.98297456 60.8898917,4.35586491 C60.3670408,5.23494386 60.0171329,5.77043509 59.8384443,5.96348772 C59.6614794,6.15596579 59.405225,6.25249211 59.0708303,6.25249211 C58.9892425,6.25249211 58.9271899,6.2496193 58.8846724,6.24329912 C58.8410057,6.23697895 58.7904443,6.22491316 58.7295408,6.20767632 L58.8421548,5.68022895 C58.9363829,5.70838246 59.0059048,5.7256193 59.0495715,5.73193947 C59.0932382,5.73883421 59.1328829,5.74170702 59.1673566,5.74170702 C59.274225,5.74170702 59.3569618,5.72389561 59.414418,5.68884737 C59.4724487,5.65322456 59.5241592,5.60955789 59.568975,5.55842193 C59.5839136,5.54118509 59.6407952,5.45385175 59.7407689,5.29469825 C59.8407425,5.1361193 59.9137118,5.01833421 59.9608259,4.94134298 L59.4402732,1.39802281 L60.0964224,1.39802281 L60.4244969,4.20188246 L61.9482338,1.39802281 Z" id="Fill-39"></path>
            <path d="M63.0895425,1.39802281 L63.6618057,1.39802281 L63.5583846,1.88697456 C63.7324768,1.71805351 63.8818627,1.59452281 64.0088408,1.51695702 C64.2271741,1.38595702 64.4575732,1.32103158 64.7000382,1.32103158 C64.9735294,1.32103158 65.1815206,1.38825526 65.3205645,1.52385175 C65.3981303,1.60084298 65.4584592,1.71460614 65.503275,1.86456667 C65.6727706,1.68013246 65.8537575,1.54338684 66.045661,1.45490439 C66.2375645,1.36527281 66.4415338,1.32103158 66.6581434,1.32103158 C67.1206654,1.32103158 67.4010513,1.48822895 67.4964285,1.82262368 C67.548139,2.00303596 67.5423934,2.24492632 67.477468,2.54944386 L66.9925382,4.8413693 L66.3909724,4.8413693 L66.8994592,2.44947018 C66.9465732,2.22022018 66.9218671,2.06279035 66.8253408,1.9771807 C66.7288145,1.89099649 66.5972399,1.84847895 66.4323408,1.84847895 C66.2059636,1.84847895 65.9939504,1.92432105 65.7974504,2.07657982 C65.6020996,2.2288386 65.4665031,2.48279474 65.3912355,2.83844825 L64.9672092,4.8413693 L64.3788583,4.8413693 L64.8545952,2.59425965 C64.9028583,2.36098772 64.9120513,2.19034298 64.8793013,2.0829 C64.8264417,1.92202281 64.6799285,1.84158421 64.4397618,1.84158421 C64.2208539,1.84158421 64.0042443,1.9266193 63.7887838,2.09611491 C63.5733232,2.26561053 63.4181917,2.57185175 63.3239636,3.01541316 L62.9378583,4.8413693 L62.359275,4.8413693 L63.0895425,1.39802281 Z" id="Fill-40"></path>
            <path d="M70.6216404,2.84511316 C70.6520921,2.59402982 70.6394518,2.39408246 70.5865921,2.24354737 C70.4883421,1.96545965 70.2533465,1.82584123 69.8821798,1.82584123 C69.6161579,1.82584123 69.373693,1.92179298 69.1524868,2.11369649 C68.9318553,2.3056 68.7836184,2.54921404 68.7095,2.84511316 L70.6216404,2.84511316 Z M71.1266798,1.93845526 C71.2065439,2.11197281 71.2398684,2.31421842 71.2301009,2.54576667 C71.2318246,2.70492018 71.1950526,2.95715263 71.1197851,3.30476228 L68.5963114,3.30476228 C68.5319605,3.65409561 68.5543684,3.93448158 68.6658333,4.14592018 C68.7755746,4.35678421 68.9933333,4.46192895 69.3168114,4.46192895 C69.6184561,4.46192895 69.8798816,4.36252982 70.1010877,4.16315702 C70.2297895,4.04767018 70.3309123,3.91322281 70.4061798,3.7615386 L70.9749956,3.7615386 C70.9324781,3.88736754 70.852614,4.02870965 70.7359781,4.18384123 C70.6193421,4.33954737 70.4969605,4.46652544 70.3711316,4.56477544 C70.1591184,4.7365693 69.9166535,4.85205614 69.6443114,4.91238509 C69.4960746,4.94628421 69.3346228,4.96409561 69.1593816,4.96409561 C68.7307588,4.96409561 68.4009605,4.80781491 68.1682632,4.49582807 C67.9372895,4.18384123 67.8809825,3.74717456 68.0010658,3.18582807 C68.1194254,2.6331 68.3647632,2.18379298 68.7376535,1.83848158 C69.1111184,1.49317018 69.5397412,1.32137632 70.0235219,1.32137632 C70.2682851,1.32137632 70.4935132,1.37825789 70.6992061,1.49259561 C70.9043246,1.60808246 71.0468158,1.75574474 71.1266798,1.93845526 L71.1266798,1.93845526 Z" id="Fill-41"></path>
            <path d="M72.2353535,1.39802281 L72.7852088,1.39802281 L72.6817877,1.88697456 C72.8886298,1.68530351 73.09145,1.5410886 73.2913974,1.4531807 C73.4924939,1.36469825 73.704507,1.32103158 73.9262877,1.32103158 C74.415814,1.32103158 74.7088404,1.49167632 74.8076649,1.83239123 C74.8633974,2.01854912 74.8547789,2.28572018 74.7818096,2.63275526 L74.312393,4.8413693 L73.7246167,4.8413693 L74.1836912,2.67125088 C74.228507,2.46153596 74.2342526,2.29204035 74.2003535,2.1633386 C74.1417482,1.94902719 73.9779982,1.84158421 73.7079544,1.84158421 C73.5706342,1.84158421 73.4551474,1.85594825 73.3609193,1.88410175 C73.1914237,1.93121579 73.0322702,2.02544386 72.8817351,2.16678596 C72.7616518,2.27997456 72.6743184,2.39718509 72.6203096,2.51841754 C72.5651518,2.63965 72.5134412,2.81316754 72.4674763,3.03782105 L72.0848184,4.8413693 L71.5056605,4.8413693 L72.2353535,1.39802281 Z" id="Fill-42"></path>
            <path d="M76.2191325,0.436896491 L76.804036,0.436896491 L76.598343,1.39813772 L77.1481982,1.39813772 L77.0482246,1.87100175 L76.4983693,1.87100175 L76.0191851,4.1181114 C75.9933298,4.23819474 76.0168868,4.31863333 76.0898561,4.35942719 C76.13065,4.38298421 76.2036193,4.39505 76.308764,4.39505 C76.3369175,4.39505 76.3673693,4.39447544 76.3983956,4.39332632 C76.4311456,4.39217719 76.4696412,4.38930439 76.514457,4.38470789 L76.4179307,4.84148421 C76.3472596,4.86044474 76.2754395,4.87480877 76.2013211,4.88285263 C76.1272026,4.89204561 76.0484877,4.89606754 75.9646018,4.89606754 C75.6951325,4.89606754 75.5256368,4.82712018 75.4584132,4.68865088 C75.3911895,4.55018158 75.3808474,4.37149298 75.4279614,4.15028684 L75.9140404,1.87100175 L75.4469219,1.87100175 L75.5468956,1.39813772 L76.0128649,1.39813772 L76.2191325,0.436896491 Z" id="Fill-43"></path>
            <path d="M79.6429439,3.31751754 C79.6015754,3.58583772 79.6193868,3.80302193 79.6935053,3.9702193 C79.8394439,4.28335526 80.1807333,4.43963596 80.71565,4.43963596 C80.9558167,4.43963596 81.1827684,4.40573684 81.3947816,4.33621491 C81.8044439,4.20406579 82.0457596,3.96619737 82.1187289,3.62260965 C82.1733123,3.3657807 82.1319439,3.18249561 81.9929,3.07332895 C81.8538561,2.96646053 81.6188605,2.87338158 81.2879132,2.79351754 L80.6777289,2.64872807 C80.2812816,2.5545 80.0077904,2.45050439 79.8584044,2.33731579 C79.6004263,2.13966667 79.5136675,1.84491667 79.5969789,1.45306579 C79.6877596,1.02903947 79.9078167,0.680280702 80.2600228,0.408513158 C80.6116544,0.136171053 81.0557904,-1.63300173e-14 81.5941544,-1.63300173e-14 C82.0894263,-1.63300173e-14 82.48415,0.119508772 82.7783254,0.358526316 C83.07365,0.59754386 83.1655798,0.979627193 83.0535404,1.50477632 L82.4519746,1.50477632 C82.4743825,1.25139474 82.4473781,1.05719298 82.3721105,0.922171053 C82.2284702,0.675684211 81.9233781,0.55272807 81.4551105,0.55272807 C81.0781982,0.55272807 80.7909175,0.632017544 80.5921193,0.791171053 C80.3938956,0.949175439 80.2726632,1.13360965 80.2278474,1.34332456 C80.1784351,1.57544737 80.238764,1.74436842 80.4071105,1.85123684 C80.51915,1.92018421 80.7863211,2.00579386 81.2114965,2.10864035 L81.8412158,2.25975 C82.1451588,2.3327193 82.3709614,2.43269298 82.5169,2.55909649 C82.7714307,2.77915351 82.8547421,3.09975877 82.7639614,3.52033772 C82.6524965,4.0431886 82.3824526,4.41722807 81.9532553,4.64245614 C81.5246325,4.86710965 81.0592377,4.97972368 80.5553474,4.97972368 C79.9681456,4.97972368 79.5406719,4.82976316 79.2723518,4.52926754 C79.0046061,4.23164474 78.9281895,3.82772807 79.0413781,3.31751754 L79.6429439,3.31751754 Z" id="Fill-44"></path>
            <path d="M85.9956969,2.84511316 C86.0249996,2.59402982 86.0135083,2.39408246 85.9600741,2.24354737 C85.8612496,1.96545965 85.6262539,1.82584123 85.2562364,1.82584123 C84.9902145,1.82584123 84.7466004,1.92179298 84.5253943,2.11369649 C84.3059118,2.3056 84.157675,2.54921404 84.0824075,2.84511316 L85.9956969,2.84511316 Z M86.4995873,1.93845526 C86.5794513,2.11197281 86.613925,2.31421842 86.6030083,2.54576667 C86.6053066,2.70492018 86.5691092,2.95715263 86.4938417,3.30476228 L83.970368,3.30476228 C83.904868,3.65409561 83.928425,3.93448158 84.0387408,4.14592018 C84.1496311,4.35678421 84.3662408,4.46192895 84.690868,4.46192895 C84.9925127,4.46192895 85.2539382,4.36252982 85.4751443,4.16315702 C85.6026969,4.04767018 85.7049689,3.91322281 85.7802364,3.7615386 L86.3490522,3.7615386 C86.3065346,3.88736754 86.2255215,4.02870965 86.1088855,4.18384123 C85.9922496,4.33954737 85.8710171,4.46652544 85.7446136,4.56477544 C85.5320259,4.7365693 85.289561,4.85205614 85.018368,4.91238509 C84.8701311,4.94628421 84.7086794,4.96409561 84.532289,4.96409561 C84.1036662,4.96409561 83.773868,4.80781491 83.5423197,4.49582807 C83.3101969,4.18384123 83.255039,3.74717456 83.3751224,3.18582807 C83.493482,2.6331 83.7388197,2.18379298 84.1117101,1.83848158 C84.4840259,1.49317018 84.9126487,1.32137632 85.3975785,1.32137632 C85.6423417,1.32137632 85.8664206,1.37825789 86.0721136,1.49259561 C86.2783811,1.60808246 86.4208724,1.75574474 86.4995873,1.93845526 L86.4995873,1.93845526 Z" id="Fill-45"></path>
            <path d="M87.6250956,1.39802281 L88.1749509,1.39802281 L88.0491219,1.99269386 C88.1174947,1.87720702 88.2582623,1.73643947 88.4691263,1.57039123 C88.6799904,1.40434298 88.9000474,1.32103158 89.1298719,1.32103158 C89.140214,1.32103158 89.1591746,1.3221807 89.1850298,1.32447895 C89.209736,1.32677719 89.2534026,1.33079912 89.313157,1.33769386 L89.1850298,1.94787807 C89.1499816,1.94155789 89.1189553,1.9369614 89.0908018,1.93523772 C89.0637974,1.93351404 89.0321965,1.93236491 88.9977228,1.93236491 C88.7069947,1.93236491 88.4622316,2.02601842 88.2668807,2.21332544 C88.0703807,2.40063246 87.9462754,2.61666754 87.8922667,2.86085614 L87.4734114,4.8413693 L86.8954026,4.8413693 L87.6250956,1.39802281 Z" id="Fill-46"></path>
            <polygon id="Fill-47" points="90.0849079 1.39802281 90.4089605 4.20188246 91.9654474 1.39802281 92.598614 1.39802281 90.5698377 4.8413693 89.9527588 4.8413693 89.4126711 1.39802281"></polygon>
            <path d="M93.3673197,0.118704386 L93.9550961,0.118704386 L93.8137539,0.774853509 L93.2259776,0.774853509 L93.3673197,0.118704386 Z M93.0903811,1.41434035 L93.6793066,1.41434035 L92.9519118,4.84159912 L92.3641355,4.84159912 L93.0903811,1.41434035 Z" id="Fill-48"></path>
            <path d="M97.0256671,2.55559167 L96.4631715,2.55559167 C96.4735136,2.34357851 96.4332943,2.16718816 96.3413645,2.02699518 C96.2488601,1.88622763 96.0672987,1.81613114 95.7978294,1.81613114 C95.428961,1.81613114 95.1267417,1.99596886 94.8911715,2.35621886 C94.7389127,2.59006535 94.6262987,2.87849518 94.5533294,3.22093377 C94.4780618,3.56624518 94.4895531,3.85697325 94.5860794,4.09254342 C94.6814566,4.3281136 94.886575,4.44589868 95.199711,4.44589868 C95.4398776,4.44589868 95.6455706,4.37235482 95.8167899,4.22584167 C95.9885838,4.07875395 96.1282022,3.87823202 96.2344961,3.62255219 L96.7981408,3.62255219 C96.6361145,4.07932851 96.4051408,4.41314868 96.1034961,4.62458728 C95.8001276,4.83602588 95.4490706,4.94117061 95.0486013,4.94117061 C94.5981452,4.94117061 94.2740925,4.77684605 94.0752943,4.44762237 C93.8776452,4.11897325 93.8305311,3.70758728 93.9362504,3.2146136 C94.0643776,2.61074956 94.3120136,2.13960921 94.6768601,1.80291623 C95.0428557,1.46679781 95.452518,1.29845132 95.9069961,1.29845132 C96.2953996,1.29845132 96.5901496,1.39325395 96.7923952,1.58171009 C96.9952154,1.77016623 97.0727811,2.09479342 97.0256671,2.55559167" id="Fill-49"></path>
            <path d="M99.8962333,2.84511316 C99.9266851,2.59402982 99.9140447,2.39408246 99.8611851,2.24354737 C99.7629351,1.96545965 99.5279395,1.82584123 99.1567728,1.82584123 C98.8907509,1.82584123 98.648286,1.92179298 98.4270798,2.11369649 C98.2064482,2.3056 98.0582114,2.54921404 97.984093,2.84511316 L99.8962333,2.84511316 Z M100.401273,1.93845526 C100.481137,2.11197281 100.514461,2.31421842 100.504694,2.54576667 C100.506418,2.70492018 100.469646,2.95715263 100.394378,3.30476228 L97.8709044,3.30476228 C97.8065535,3.65409561 97.8289614,3.93448158 97.9404263,4.14592018 C98.0501675,4.35678421 98.2679263,4.46192895 98.5914044,4.46192895 C98.8930491,4.46192895 99.1544746,4.36252982 99.3756807,4.16315702 C99.5043825,4.04767018 99.6055053,3.91322281 99.6807728,3.7615386 L100.249589,3.7615386 C100.207071,3.88736754 100.127207,4.02870965 100.010571,4.18384123 C99.8939351,4.33954737 99.7715535,4.46652544 99.6457246,4.56477544 C99.4337114,4.7365693 99.1912465,4.85205614 98.9189044,4.91238509 C98.7706675,4.94628421 98.6092158,4.96409561 98.4339746,4.96409561 C98.0053518,4.96409561 97.6755535,4.80781491 97.4428561,4.49582807 C97.2118825,4.18384123 97.1555754,3.74717456 97.2756588,3.18582807 C97.3940184,2.6331 97.6393561,2.18379298 98.0122465,1.83848158 C98.3857114,1.49317018 98.8143342,1.32137632 99.2981149,1.32137632 C99.5428781,1.32137632 99.7681061,1.37825789 99.9737991,1.49259561 C100.178918,1.60808246 100.321409,1.75574474 100.401273,1.93845526 L100.401273,1.93845526 Z" id="Fill-50"></path>
            <path d="M101.352861,3.76136623 C101.329304,3.95441886 101.345967,4.10208114 101.404572,4.20492763 C101.508568,4.39166009 101.742414,4.48473904 102.101515,4.48473904 C102.315826,4.48473904 102.515199,4.43819956 102.698484,4.34512061 C102.881195,4.25204167 102.993234,4.10782675 103.034028,3.91247588 C103.066204,3.7648136 103.024835,3.65219956 102.908199,3.57463377 C102.836379,3.5280943 102.682396,3.4729364 102.449125,3.41088377 L102.014756,3.29482237 C101.736668,3.22242763 101.536721,3.14083991 101.416638,3.05120833 C101.200028,2.89435307 101.123037,2.67774342 101.182217,2.40137939 C101.250589,2.07560307 101.423532,1.81187939 101.70162,1.61078289 C101.979133,1.40911184 102.315826,1.30798904 102.712848,1.30798904 C103.231677,1.30798904 103.573541,1.46024781 103.73844,1.76476535 C103.840712,1.95724342 103.866568,2.16580921 103.814857,2.38816447 L103.268449,2.38816447 C103.286261,2.25773904 103.263853,2.13880482 103.204673,2.03136184 C103.10355,1.87967763 102.889239,1.80326096 102.561739,1.80326096 C102.342831,1.80326096 102.168739,1.84520395 102.039462,1.92908991 C101.909611,2.01240132 101.829747,2.12271711 101.799296,2.26003728 C101.76712,2.40942325 101.815383,2.52950658 101.944085,2.62028728 C102.019353,2.67314693 102.135989,2.72026096 102.294568,2.76162939 L102.65769,2.85470833 C103.051839,2.95583114 103.310967,3.05293202 103.432199,3.14716009 C103.625252,3.29482237 103.687879,3.5280943 103.619506,3.84525219 C103.554581,4.15149342 103.382787,4.41636623 103.10355,4.63872149 C102.824313,4.86165132 102.445677,4.97311623 101.96994,4.97311623 C101.457432,4.97311623 101.119589,4.85705482 100.955839,4.62435746 C100.791515,4.39223465 100.73923,4.10437939 100.796111,3.76136623 L101.352861,3.76136623 Z" id="Fill-51"></path>
            <path d="M109.398962,0.767901316 C109.270835,0.701826754 109.083528,0.668502193 108.836466,0.668502193 L107.564387,0.668502193 L107.216203,2.30485307 L108.490006,2.30485307 C108.777286,2.30485307 109.023199,2.243375 109.227168,2.12156798 C109.431712,1.99976096 109.567308,1.78430044 109.634532,1.4751864 C109.706352,1.12815132 109.628786,0.89258114 109.398962,0.767901316 L109.398962,0.767901316 Z M107.042111,0.11864693 L109.167988,0.11864693 C109.587418,0.11864693 109.901703,0.237006579 110.107971,0.473725877 C110.314813,0.710445175 110.371694,1.04311623 110.279764,1.4723136 C110.203348,1.84060746 110.020637,2.16178728 109.732207,2.43470395 C109.443778,2.70819518 109.062269,2.84494079 108.586532,2.84494079 L107.100716,2.84494079 L106.680137,4.84154167 L106.040076,4.84154167 L107.042111,0.11864693 Z" id="Fill-52"></path>
            <path d="M111.039564,1.39802281 L111.588271,1.39802281 L111.463591,1.99269386 C111.531964,1.87720702 111.671582,1.73643947 111.883595,1.57039123 C112.094459,1.40434298 112.314516,1.32103158 112.543192,1.32103158 C112.554683,1.32103158 112.572494,1.3221807 112.59835,1.32447895 C112.624205,1.32677719 112.666722,1.33079912 112.727626,1.33769386 L112.59835,1.94787807 C112.563301,1.94155789 112.533424,1.9369614 112.505271,1.93523772 C112.477117,1.93351404 112.445516,1.93236491 112.412192,1.93236491 C112.120314,1.93236491 111.8767,2.02601842 111.6802,2.21332544 C111.4837,2.40063246 111.359595,2.61666754 111.305586,2.86085614 L110.88788,4.8413693 L110.309297,4.8413693 L111.039564,1.39802281 Z" id="Fill-53"></path>
            <path d="M115.232082,3.06333158 C115.300454,2.74157719 115.303902,2.48015175 115.244147,2.27905526 C115.148196,1.96189737 114.899985,1.80331842 114.501814,1.80331842 C114.147884,1.80331842 113.862902,1.93834035 113.645143,2.20838421 C113.427384,2.47842807 113.278573,2.80420439 113.196411,3.18571316 C113.118845,3.55228333 113.134932,3.85795 113.243525,4.1021386 C113.351542,4.34632719 113.580218,4.46813421 113.928976,4.46813421 C114.312783,4.46813421 114.606959,4.32334474 114.812652,4.03261667 C115.016621,3.74246316 115.156814,3.41955965 115.232082,3.06333158 M115.839393,3.04781842 C115.721608,3.60227018 115.488911,4.06134474 115.141301,4.42331842 C114.794266,4.78586667 114.33634,4.96685351 113.768674,4.96685351 C113.295235,4.96685351 112.952796,4.80655088 112.743082,4.48652018 C112.533367,4.16591491 112.485104,3.73556842 112.598292,3.19490614 C112.722972,2.61689737 112.968884,2.15609912 113.334305,1.81308596 C113.70145,1.47007281 114.132371,1.29885351 114.627068,1.29885351 C115.07063,1.29885351 115.413643,1.44651579 115.657257,1.74241491 C115.900871,2.03831404 115.961775,2.47325702 115.839393,3.04781842" id="Fill-54"></path>
            <polygon id="Fill-55" points="117.160022 1.39802281 117.485224 4.20188246 119.040562 1.39802281 119.674878 1.39802281 117.646101 4.8413693 117.028448 4.8413693 116.488935 1.39802281"></polygon>
            <path d="M120.442434,0.118704386 L121.03136,0.118704386 L120.888868,0.774853509 L120.301092,0.774853509 L120.442434,0.118704386 Z M120.166645,1.41434035 L120.754421,1.41434035 L120.028175,4.84159912 L119.43925,4.84159912 L120.166645,1.41434035 Z" id="Fill-56"></path>
            <path d="M122.336706,4.45882632 C122.603877,4.45882632 122.84864,4.34391404 123.069271,4.11294035 C123.290478,3.88311579 123.446758,3.55216842 123.538688,3.12182193 C123.630618,2.68630439 123.610508,2.36397544 123.477785,2.15540965 C123.344486,1.9462693 123.147986,1.84169912 122.886561,1.84169912 C122.594684,1.84169912 122.334407,1.9537386 122.106881,2.17609386 C121.877631,2.39902368 121.718478,2.72709825 121.626548,3.15974298 C121.546684,3.5286114 121.55875,3.83715088 121.662171,4.08651053 C121.766741,4.33472105 121.99082,4.45882632 122.336706,4.45882632 M123.509386,1.50443158 C123.600166,1.56878246 123.693245,1.68139649 123.789771,1.84169912 L124.159214,0.102501754 L124.715964,0.102501754 L123.709333,4.84148421 L123.188206,4.84148421 L123.288179,4.3623 C123.107767,4.57431316 122.915864,4.72829561 122.710171,4.82252368 C122.506201,4.91675175 122.284995,4.96386579 122.047127,4.96386579 C121.66332,4.96386579 121.365122,4.80241404 121.152535,4.47951053 C120.940521,4.15775614 120.892258,3.72855877 121.007745,3.19249298 C121.113464,2.69090088 121.333521,2.25595789 121.667916,1.8882386 C122.002311,1.52109386 122.407377,1.33723421 122.883114,1.33723421 C123.146837,1.33723421 123.355403,1.39296667 123.509386,1.50443158" id="Fill-57"></path>
            <path d="M127.341653,2.84511316 C127.372104,2.59402982 127.359464,2.39408246 127.306604,2.24354737 C127.208354,1.96545965 126.973359,1.82584123 126.602192,1.82584123 C126.33617,1.82584123 126.093705,1.92179298 125.872499,2.11369649 C125.651868,2.3056 125.503631,2.54921404 125.429512,2.84511316 L127.341653,2.84511316 Z M127.846692,1.93845526 C127.926556,2.11197281 127.959881,2.31421842 127.950113,2.54576667 C127.951837,2.70492018 127.915065,2.95715263 127.839797,3.30476228 L125.316324,3.30476228 C125.251973,3.65409561 125.274381,3.93448158 125.385846,4.14592018 C125.495587,4.35678421 125.713346,4.46192895 126.036824,4.46192895 C126.338468,4.46192895 126.599894,4.36252982 126.8211,4.16315702 C126.949802,4.04767018 127.050925,3.91322281 127.126192,3.7615386 L127.695008,3.7615386 C127.65249,3.88736754 127.572626,4.02870965 127.45599,4.18384123 C127.339354,4.33954737 127.216973,4.46652544 127.091144,4.56477544 C126.879131,4.7365693 126.636666,4.85205614 126.364324,4.91238509 C126.216087,4.94628421 126.054635,4.96409561 125.879394,4.96409561 C125.450771,4.96409561 125.120973,4.80781491 124.888275,4.49582807 C124.657302,4.18384123 124.600995,3.74717456 124.721078,3.18582807 C124.839438,2.6331 125.084775,2.18379298 125.457666,1.83848158 C125.831131,1.49317018 126.259754,1.32137632 126.743534,1.32137632 C126.988297,1.32137632 127.213525,1.37825789 127.419218,1.49259561 C127.624337,1.60808246 127.766828,1.75574474 127.846692,1.93845526 L127.846692,1.93845526 Z" id="Fill-58"></path>
            <path d="M128.9722,1.39802281 L129.520907,1.39802281 L129.396227,1.99269386 C129.4646,1.87720702 129.604218,1.73643947 129.816231,1.57039123 C130.027095,1.40434298 130.247152,1.32103158 130.475828,1.32103158 C130.487319,1.32103158 130.50513,1.3221807 130.530986,1.32447895 C130.556841,1.32677719 130.599358,1.33079912 130.660262,1.33769386 L130.530986,1.94787807 C130.495937,1.94155789 130.46606,1.9369614 130.437907,1.93523772 C130.409753,1.93351404 130.378152,1.93236491 130.344828,1.93236491 C130.05295,1.93236491 129.809336,2.02601842 129.612836,2.21332544 C129.416336,2.40063246 129.292231,2.61666754 129.238222,2.86085614 L128.820516,4.8413693 L128.241933,4.8413693 L128.9722,1.39802281 Z" id="Fill-59"></path>
        </g>
        <path d="M78,6 L78,21.5780035 L74.1031267,21.5780035 L74.1031267,19.4084485 L74.0164764,19.4084485 C72.9963931,21.1363574 71.4761285,22 69.4556824,22 C67.3963931,22 65.9433572,21.4077078 65.0968733,20.2224995 C64.3651265,19.2378409 64,17.6911441 64,15.5817852 L64,6 L68.0988582,6 L68.0988582,14.7983002 C68.0988582,17.3499288 68.974325,18.6252753 70.7255576,18.6252753 C71.8415537,18.6252753 72.6497919,18.2740794 73.1505709,17.5707519 C73.6504535,16.8677362 73.900843,15.7327433 73.900843,14.1657732 L73.900843,6 L78,6 Z" id="Fill-82" fill="#E2642A"></path>
        <path d="M86.8675563,1 L86.8675563,5.57251908 L90,5.57251908 L90,8.37465649 L86.8675563,8.37465649 L86.8675563,15.9264122 C86.8675563,16.6345038 86.987903,17.1062595 87.2285964,17.3422901 C87.4699133,17.5783206 87.9516119,17.6964885 88.6746274,17.6964885 C89.1566378,17.6964885 89.5981169,17.6574046 90,17.5783206 L90,20.8528244 C89.3973312,20.9508397 88.5639459,21 87.4995323,21 C84.2264763,21 82.59026,19.7905344 82.59026,17.3716031 L82.59026,8.37465649 L80,8.37465649 L80,5.57251908 L82.59026,5.57251908 L82.59026,1 L86.8675563,1 Z" id="Fill-84" fill="#E2642A"></path>
        <path d="M106,6 L106,21.5780035 L102.103043,21.5780035 L102.103043,19.4084485 L102.016391,19.4084485 C100.995988,21.1363574 99.476288,22 97.4552013,22 C95.3961668,22 93.9430998,21.4077078 93.0962991,20.2224995 C92.3651342,19.2378409 92,17.6911441 92,15.5817852 L92,6 L96.0986469,6 L96.0986469,14.7983002 C96.0986469,17.3499288 96.9744312,18.6252753 98.7257011,18.6252753 C99.8417211,18.6252753 100.649977,18.2740794 101.150467,17.5707519 C101.650659,16.8677362 101.901054,15.7327433 101.901054,14.1657732 L101.901054,6 L106,6 Z" id="Fill-86" fill="#E2642A"></path>
        <path d="M109,21 L109,5.42199653 L113.053777,5.42199653 L113.053777,8.31452855 L113.113771,8.31452855 C113.493938,7.35045517 114.154803,6.55698941 115.096052,5.93413127 C116.036991,5.31158502 117.027976,5 118.069319,5 C118.389182,5 118.69972,5.0502154 119,5.15095811 L119,9.12826761 C118.559217,9.0275249 118.048803,8.9776214 117.468449,8.9776214 C114.665216,8.9776214 113.264221,10.6450223 113.264221,13.9792004 L113.264221,21 L109,21 Z" id="Fill-88" fill="#E2642A"></path>
        <path d="M124,11 L131,11 C130.595671,9.0001882 129.454517,8 127.575282,8 C126.363551,8 125.434128,8.36388445 124.787955,9.09080644 C124.302698,9.63649195 124.040151,10.273078 124,11 M134.974183,14.0130102 L124.129014,14.0130102 C124.245188,16.577216 125.475856,17.859015 127.82162,17.859015 C128.615881,17.859015 129.333394,17.6438624 129.973258,17.2129494 C130.573694,16.8412946 130.942082,16.400961 131.07812,15.8919489 L134.712338,15.8919489 C133.607777,19.2973163 131.262013,21 127.67595,21 C125.330488,21 123.464772,20.2618564 122.078803,18.7837458 C120.692834,17.3059391 120,15.3829367 120,13.0147386 C120,10.7057986 120.712397,8.79252056 122.137191,7.27520845 C123.561684,5.758808 125.408138,5 127.67595,5 C130.118325,5 132.00842,5.92017246 133.345932,7.75960571 C134.586232,9.44314448 135.129182,11.5275113 134.974183,14.0130102" id="Fill-90" fill="#E2642A"></path>
        <path d="M151,0 L151,14.7167193 C151,19.5728628 148.651603,22 143.955422,22 C142.02125,22 140.423175,21.4784973 139.16028,20.4351803 C137.719991,19.2516745 137,17.5563234 137,15.349127 L137,13.4827454 L141.202604,13.4827454 L141.202604,14.445999 C141.202604,16.8341948 142.100602,18.0273581 143.896291,18.0273581 C144.98118,18.0273581 145.70209,17.6264178 146.056877,16.8239142 C146.254185,16.3622255 146.353146,15.5899404 146.353146,14.5061244 L146.353146,0 L151,0 Z" id="Fill-92" fill="#1C1C46"></path>
        <path d="M158,13.0151672 C158,14.4455703 158.286704,15.5829502 158.860442,16.4288708 C159.540086,17.4764987 160.581656,18 161.984164,18 C164.661498,18 166,16.3384933 166,13.0151672 C166,9.67213935 164.661498,8 161.984164,8 C159.327285,8 158,9.67213935 158,13.0151672 M154,13.0147386 C154,10.588194 154.727779,8.64543883 156.183338,7.18708097 C157.638277,5.72933088 159.572418,5 161.985141,5 C164.417366,5 166.361413,5.72933088 167.816662,7.18708097 C169.271911,8.64543883 170,10.588194 170,13.0147386 C170,15.4221382 169.271911,17.3551689 167.816662,18.812919 C166.361413,20.2712769 164.417366,21 161.985141,21 C159.572418,21 157.638277,20.2712769 156.183338,18.812919 C154.727779,17.3551689 154,15.4221382 154,13.0147386" id="Fill-94" fill="#1C1C46"></path>
        <path d="M184,13.0151672 C184,11.5853895 183.720048,10.416737 183.161042,9.51046064 C182.54395,8.50379961 181.656786,8 180.50015,8 C179.342615,8 178.455451,8.50379961 177.838659,9.51046064 C177.279054,10.416737 177,11.5853895 177,13.0151672 C177,14.4252431 177.279054,15.5829502 177.838659,16.4892266 C178.474913,17.4968258 179.362077,18 180.50015,18 C181.637324,18 182.524488,17.4968258 183.161042,16.4892266 C183.720048,15.5829502 184,14.4252431 184,13.0151672 L184,13.0151672 Z M173,20.5963031 L173,0 L177.088471,0 L177.088471,7.49974406 L177.145988,7.49974406 C178.124968,6.0190246 179.688952,5.27881416 181.838833,5.27881416 C183.489242,5.27881416 184.890509,5.90406654 186.04204,7.15397412 C187.347049,8.59617517 188,10.5865918 188,13.1249254 C188,15.682966 187.347049,17.6829376 186.04204,19.1251386 C184.890509,20.3756434 183.489242,21 181.838833,21 C179.42044,21 177.788807,20.2311247 176.944529,18.6924783 L176.887012,18.6924783 L176.887012,20.5963031 L173,20.5963031 Z" id="Fill-96" fill="#1C1C46"></path>
        <path d="M190,15.6570436 L193.946018,15.6570436 C193.964776,16.5182618 194.296359,17.1737479 194.939557,17.6241097 C195.504398,18.0158212 196.23503,18.2109172 197.131453,18.2109172 C197.852404,18.2109172 198.456272,18.0744715 198.943663,17.8000608 C199.547834,17.4478547 199.849768,16.9391465 199.849768,16.2733281 C199.849768,15.6862168 199.440735,15.21671 198.622366,14.8642001 C198.037558,14.6101499 196.877925,14.2965376 195.144376,13.9245788 C193.662842,13.6118782 192.562204,13.2010218 191.841253,12.6917058 C190.847715,12.0264952 190.350945,11.0871778 190.350945,9.8734497 C190.350945,6.62458453 192.542842,5 196.926937,5 C201.096532,5 203.318077,6.61455623 203.590967,9.84397257 L199.645251,9.84397257 C199.547834,8.47404608 198.602701,7.78877894 196.810157,7.78877894 C195.270837,7.78877894 194.501178,8.25858958 194.501178,9.19821086 C194.501178,9.84397257 194.987963,10.3432603 195.962744,10.6954664 C196.079525,10.7349718 197.161102,10.9890221 199.206872,11.4588327 C200.707164,11.8110387 201.807801,12.2419517 202.509692,12.75066 C203.503231,13.4550721 204,14.4436193 204,15.71539 C204,17.555431 203.279352,18.935082 201.83745,19.8549505 C200.648471,20.6183168 199.070124,21 197.102712,21 C195.134392,21 193.53638,20.6082885 192.309281,19.8257773 C190.847715,18.9059087 190.077753,17.5165334 190,15.6570436" id="Fill-98" fill="#1C1C46"></path>
    </g>
</svg>